<svg width="231" height="243" viewBox="0 0 231 243" fill="none" xmlns="http://www.w3.org/2000/svg">
<path d="M50.9169 208.026C50.1084 207.785 49.1334 207.708 48.7167 206.862C47.6582 207.126 46.8026 206.024 46.7022 205.055C44.9189 203.891 43.6374 202.088 41.9924 200.728C41.0422 200.525 39.9071 200.456 39.3445 199.535C38.1167 197.456 36.7065 195.577 34.8758 194.002C38.2197 198.491 41.0239 203.462 44.7278 207.747C46.3945 210.014 48.3564 212.129 49.3185 214.822C49.6824 215.973 48.9208 217.84 47.5019 217.444C46.049 218.313 44.6027 216.724 44.5318 215.29C43.1615 214.478 41.311 214.086 40.9871 212.292C40.0574 212.568 39.273 212.117 38.6739 211.47C37.5314 210.746 36.9587 209.553 36.4662 208.328C34.0269 206.709 31.9689 204.6 29.7277 202.737C31.7431 207.53 35.9425 210.948 38.2681 215.525C39.5483 216.896 39.0796 220.587 36.8442 220.526C35.94 221.088 35.1444 220.335 34.6845 219.585C33.6714 218.954 32.6143 218.402 32.0619 217.29C31.6781 217.255 31.2772 217.223 30.9047 217.094C30.8726 217.095 30.8394 217.064 30.824 217.047C33.7728 221.201 36.7363 225.351 39.748 229.47C40.3385 230.28 40.2908 231.574 39.648 232.331C39.0225 233.09 38.0279 232.952 37.4706 232.173C34.5605 228.196 31.7125 224.167 28.848 220.156C26.2599 216.214 23.0254 212.535 20.7663 208.484C18.302 206.198 22.1792 202.332 23.6066 205.92C24.2496 206.486 24.4759 207.388 24.9963 208.04C25.6019 208.464 26.319 208.834 26.898 209.405C28.6897 211.652 31.8435 212.78 32.906 215.519C33.7731 215.676 34.431 216.179 35.0432 216.778C33.26 213.045 31.0123 209.297 28.2299 206.162C26.7817 205.049 25.6788 203.733 25.0107 202.036C23.3967 201.568 22.6175 199.937 22.9724 198.344C21.8958 198.192 21.5847 197.135 21.2198 196.285C20.7521 195.328 19.6015 195.31 19.0574 194.42C16.118 193.876 14.3776 188.784 17.3694 187.233C18.8614 186.62 20.0818 188.106 20.3248 189.454C21.7254 191.077 23.7653 191.847 25.3635 193.144C28.8284 197.9 33.7521 201.484 37.6843 205.936C38.9814 206.045 40.0101 206.631 40.843 207.589C38.6582 203.807 35.1595 201.113 33.3001 197.126C32.0715 195.815 30.8524 194.36 30.4177 192.573C29.5262 192.224 29.2602 191.116 28.5518 190.518C27.042 188.946 27.6661 185.187 30.2438 185.362C31.7419 185.305 33.079 186.087 33.3611 187.624C33.7674 187.865 34.0867 188.285 34.2468 188.74C34.3199 188.977 34.4108 189.23 34.4838 189.467C36.9112 191.69 39.305 193.804 42.2193 195.323C40.9388 193.089 38.5916 191.756 38.187 189.056C36.9444 188.688 36.543 187.393 35.4681 186.827C34.1323 186.08 33.7024 184.418 33.0005 183.136C32.0148 183.237 31.2453 182.324 31.1152 181.354C30.9841 181.28 30.8703 181.205 30.7539 181.128C30.7385 181.114 30.6726 181.067 30.6068 181.022C25.6434 181.912 28.0772 171.857 32.7003 178.548C33.2911 178.511 33.7958 178.811 34.1328 179.309C34.42 179.73 34.5519 180.221 34.5852 180.713C35.6304 181.345 36.8179 181.954 37.5134 182.999C37.9692 184.561 39.2381 185.632 39.6016 187.232C40.2244 187.655 40.9393 187.964 41.4696 188.487C44.2804 193.235 47.7161 197.607 50.3253 202.509C52.7895 202.224 53.5984 208.468 50.9009 208.059L50.9169 208.026ZM42.1715 209.79C42.1715 209.79 42.2997 209.785 42.3637 209.783C42.2616 209.626 42.1596 209.472 42.0428 209.316C42.0808 209.475 42.1335 209.631 42.1715 209.79ZM45.1153 199.318C44.8115 198.915 44.5101 198.509 44.2082 198.091C43.7351 197.453 43.2641 196.802 42.8096 196.13C43.2317 197.649 44.1691 198.762 45.4013 199.707C45.2997 199.566 45.2162 199.443 45.1146 199.301L45.1153 199.318Z" fill="#FFDF3C"/>
<path d="M95.3379 62.8314C95.7313 63.056 96.0499 63.4586 96.1769 63.8857C96.2487 64.0903 96.3212 64.3121 96.393 64.5167C97.5973 66.036 99.9135 66.4748 100.479 68.3857C103.304 71.3617 106.282 74.1717 109.581 76.602C111.026 77.6508 111.759 79.3629 112.85 80.7433C115.355 83.2675 117.829 85.8743 120.457 88.2482C120.319 87.9992 120.181 87.733 120.029 87.4821C119.703 86.8873 119.362 86.2783 119.036 85.6835C118.169 85.1262 117.103 84.8157 116.451 84.0086C115.662 82.9525 116.209 81.3528 115.39 80.3767C113.876 79.6192 112.885 79.1135 112.012 77.5497C110.505 76.9671 109.634 75.8498 108.988 74.4059C106.487 72.4071 105.049 69.3816 102.654 67.2505C102.031 66.3633 101.92 65.1066 100.863 64.5392C100.08 65.0003 99.1973 64.8114 98.598 64.1626C98.1631 63.683 97.9328 63.0698 97.8621 62.4333C96.8325 62.615 96.0156 61.6883 95.6476 60.8236C92.8313 59.8113 94.7989 53.976 97.4228 56.703C97.57 56.7443 97.7295 56.7877 97.8761 56.8143C99.0202 57.1218 99.6343 58.1672 99.7408 59.2983C100.297 59.2454 100.864 59.4956 101.265 59.9272C101.962 60.6981 102.147 61.8089 101.962 62.7905C102.353 63.8936 103.685 64.0683 104.461 64.772C105.973 66.7758 107.779 68.5587 109.644 70.1988C110.188 71.089 110.64 72.0122 111.568 72.5523C113.052 73.3604 112.902 75.3449 114.248 76.3012C115.461 77.1959 115.255 78.9457 116.268 79.9762C117.438 80.1075 118.922 80.084 119.324 81.4581C119.826 82.9248 120.418 84.2425 121.837 85.0357C125.344 88.3366 129.231 94.0834 132.506 98C134.121 99.3607 136.031 100.471 136.386 102.708C138.144 103.185 138.258 106.692 136.454 107.095C135.17 107.319 134.464 106.388 133.636 105.572C132.318 104.904 131.123 103.702 130.906 102.178C129.675 102.513 128.998 101.517 128.266 100.73C126.857 99.7439 125.163 99.2498 124.647 97.416C123.077 96.4064 122.45 94.6236 121.172 93.3144C120.536 92.9237 119.793 92.6653 119.322 92.0587C116.467 88.7185 113.561 85.2347 110.06 82.5406C110.643 83.2368 111.01 84.0694 111.485 84.8165C114.769 85.9889 116.124 89.3063 118.074 91.9475C121.042 96.226 125.253 99.5647 127.665 104.264C128.977 107.343 135.023 110.645 132.096 114.316C131.437 115.044 130.421 114.793 129.854 114.16C129.424 114.144 129.08 113.903 128.828 113.56C127.775 113.584 127.001 112.542 126.509 111.732C125.25 111.779 124.561 110.462 123.643 109.796C123.47 109.849 123.295 109.92 123.121 109.959C122.87 110.032 122.613 110.025 122.356 109.955C123.473 111.638 124.961 113.019 126.292 114.518C127.657 115.104 128.513 116.222 128.79 117.682C130.565 119.019 129.691 123.824 127.122 121.72C127.122 121.72 127.122 121.72 127.123 121.734C126.855 121.441 126.59 121.132 126.416 120.771C126.334 120.71 126.251 120.649 126.187 120.605C125.251 120.768 124.568 119.994 124.454 119.12C123.33 118.109 122.198 117.272 120.94 116.491C119.166 115.183 117.851 113.253 116.204 111.911C118.056 113.613 118.807 116.203 120.55 118.005C121.113 118.127 121.693 118.266 122.153 118.631C122.613 118.997 122.826 119.531 123.007 120.085C124.473 120.876 124.663 124.254 122.993 124.843C121.357 125.511 120.376 124.03 119.739 122.746C117.689 122.167 116.253 121.312 115.363 119.3C114.17 117.302 111.931 116.285 110.093 114.98C108.069 112.07 104.527 111.245 102.011 108.832C102.126 110.17 101.175 112.538 99.553 111.385C99.1563 111.464 98.8052 111.445 98.4414 111.155C98.1312 110.91 97.8778 110.601 97.6447 110.306C97.6447 110.306 97.6127 110.307 97.5979 110.308C98.4611 113.326 101.385 115.163 102.957 117.865C104.406 119.074 105.886 120.248 107.304 121.487C108.607 122.988 109.301 124.924 110.371 126.609C111.471 128.307 112.457 129.931 114.141 131.017C115.685 132.573 114.701 136.536 112.318 136.435C113.076 137.029 113.745 137.882 114.083 138.812C114.395 139.054 114.676 139.3 114.913 139.642C115.046 139.829 115.135 140.033 115.19 140.239C115.897 140.802 116.059 142.089 115.673 142.918C115.252 144.004 113.757 144.139 113.252 143.058C112.814 142.882 112.529 142.46 112.244 142.089C110.36 141.648 109.643 139.585 108.961 137.982C107.731 136.286 106.325 134.918 104.588 133.754C103.319 132.286 102.13 130.764 100.847 129.312C100.161 128.94 99.8025 128.251 99.5655 127.524C97.3559 123.935 94.2763 120.969 91.3088 118.03C90.0272 115.302 88.1162 113.296 85.8857 111.258C84.5252 109.455 82.9453 107.792 81.6163 105.974C80.4043 104.709 80.1298 102.916 78.6847 101.82C77.7578 102.237 76.8015 101.412 76.5309 100.576C75.2946 99.5217 74.1311 98.3019 74.4842 96.6601C75.2918 93.5183 77.9423 95.6373 78.8377 97.4075C78.9184 97.4539 79.0021 97.5149 79.0685 97.5741C79.6261 98.0343 79.8945 98.7423 79.9207 99.4421C80.6521 100.261 81.3996 101.047 82.1471 101.834C82.1741 100.379 82.1854 98.5751 83.4562 97.5873C83.1365 97.55 82.7984 97.4837 82.5369 97.2862C82.3559 97.1326 82.2028 96.9311 82.0687 96.7115C80.0321 96.8841 79.9223 94.4133 78.4097 93.6236C75.8801 91.3076 79.2875 86.8223 81.2416 90.8353C82.8009 91.1618 83.7561 92.3549 83.9256 93.9129C85.0502 96.2026 87.3194 96.7073 89.3404 97.8283C90.7229 97.6482 91.5268 98.689 92.282 99.6822C93.1659 100.288 94.1601 100.347 95.1712 100.531C94.1937 97.4244 90.8606 95.7924 89.9452 92.6979C89.4488 92.6203 89.0205 92.2538 88.8109 91.7978C88.7753 91.7029 88.7249 91.6086 88.6894 91.5161C87.4733 91.0016 87.3305 89.3636 87.6706 88.233C86.174 87.0109 86.6327 83.5146 88.8912 83.731C89.6402 83.7029 90.3261 84.0942 90.6713 84.8141C94.0612 87.9615 97.1172 91.5507 101.211 93.8723C102.679 95.5569 104.05 97.2624 106.099 98.2713C107.796 99.2441 109.101 100.809 110.568 102.094C111.354 103.454 112.089 104.751 113.553 105.511C113.391 105.006 113.307 104.483 113.177 103.977C113.028 103.408 112.895 102.821 112.762 102.251C111.659 101.384 110.419 100.631 110.044 99.1771C109.642 97.803 108.604 96.9782 107.535 96.093C106.451 94.4261 104.858 93.2717 103.683 91.6872C103.394 91.666 103.09 91.6625 102.803 91.6412C101.189 91.5734 100.564 89.8251 100.719 88.4301C99.5123 87.7079 98.7771 86.4598 97.6754 85.5733C96.6771 84.942 95.3681 84.4482 94.9549 83.2324C94.3297 83.2089 93.7431 82.8311 93.3699 82.2875C93.0335 81.8041 92.8703 81.2674 92.8321 80.7111C92.608 80.6554 92.3974 80.567 92.201 80.4633C91.9087 80.2991 91.7216 80.0495 91.5538 79.7844C88.6081 78.2834 91.6865 72.7223 93.6987 76.5752C93.9123 76.7424 94.095 76.9428 94.2511 77.2257C94.3199 77.3489 94.387 77.492 94.4416 77.6331C94.9931 77.4693 95.604 77.5722 96.0976 77.9708C96.6576 78.4285 96.9538 79.0885 97.0761 79.7847C97.9813 80.1037 98.3694 81.1107 98.8613 81.8572C99.65 83.7449 101.724 84.5777 102.917 86.1911C103.24 86.2284 103.562 86.3446 103.843 86.5883C104.322 86.9849 104.615 87.5661 104.748 88.1681C106.719 90.505 109.492 92.0766 111.537 94.2997C112.841 95.8621 113.736 98.0172 115.808 98.7687C117.551 99.3252 118.061 101.416 119.395 102.513C120.287 102.865 121.167 103.375 121.847 104.067C122.618 103.767 123.419 103.816 124.048 104.399C120.426 100.192 118.034 95.1568 113.933 91.3353C113.279 90.4986 112.484 89.761 111.926 88.8714C111.252 87.5568 111.316 85.8296 109.944 84.9877C108.615 83.6163 107.256 82.2607 105.836 80.974C104.255 79.6761 103.534 77.4997 101.787 76.4473C100.813 75.9903 100.58 74.9134 100.196 74.0172C99.9 73.8211 99.5892 73.6254 99.3098 73.4114C99.1799 73.3052 99.0464 73.1646 98.9443 73.0105C96.3753 73.8569 95.3721 70.5263 95.3139 68.5792C95.0577 68.5246 94.8128 68.3759 94.6117 68.144C94.2456 67.7259 93.8796 67.3078 93.4964 66.8929C89.4209 65.9278 92.6465 58.3032 95.4323 62.781L95.3379 62.8314ZM110.43 135.435C110.05 134.699 109.563 134.031 108.861 133.594C109.223 134.363 109.948 134.942 110.514 135.56C110.48 135.515 110.446 135.467 110.43 135.435ZM92.8107 102.727C92.8107 102.727 92.6974 102.667 92.6495 102.639C92.8019 102.888 92.9716 103.138 93.1241 103.386C93.2017 103.352 93.2794 103.317 93.3595 103.281C93.1774 103.098 92.9947 102.898 92.8101 102.712L92.8107 102.727ZM94.0707 112.451C93.2013 110.584 93.0442 108.5 91.5633 106.909C89.9647 105.995 88.3346 105.098 87.428 103.425C86.7416 103.019 85.9776 102.648 85.5695 101.962C85.5066 101.996 85.4443 102.046 85.3962 102.08C85.3821 102.097 85.3506 102.113 85.3365 102.131C85.3442 102.338 85.352 102.545 85.2962 102.769C85.2962 102.769 85.2962 102.769 85.2968 102.787C86.6908 103.835 87.0584 105.546 87.7854 107.036C88.7704 109.025 90.7748 110.164 91.9461 111.988C93.2866 114.573 95.5877 116.323 97.8407 118.106C99.1625 119.732 100.244 121.72 102.462 122.18C101.118 119.101 98.4679 116.933 96.7786 114.06C95.8829 113.533 94.7572 113.321 94.1175 112.449L94.0707 112.451ZM98.9523 96.2073C98.9523 96.2073 98.9191 96.1764 98.9013 96.1623C98.9736 96.3817 99.0461 96.6035 99.1179 96.8081C99.2466 96.8181 99.3581 96.8312 99.4868 96.8411C99.2869 96.6414 99.1202 96.4083 98.9351 96.2079L98.9523 96.2073ZM102.398 105.114C102.036 104.809 101.764 104.405 101.465 104.063C101.282 103.848 101.099 103.648 100.913 103.43C100.932 103.476 100.949 103.525 100.968 103.571C101.11 103.951 101.25 104.328 101.393 104.722C101.54 104.828 101.69 104.933 101.852 105.038C102.541 105.509 103.244 105.961 103.946 106.399C103.419 105.972 102.91 105.559 102.398 105.131L102.398 105.114ZM111.915 107.761C111.197 106.909 110.558 106.055 109.414 105.809C109.925 106.207 110.418 106.603 110.913 107.016C111.341 107.382 111.786 107.748 112.215 108.115C112.114 107.992 112.014 107.883 111.915 107.761ZM124.955 106.473C124.975 106.615 124.997 106.742 125.017 106.885C125.627 107.358 126.249 107.831 126.859 108.301C127.205 108.577 127.396 108.999 127.555 109.425C127.699 109.452 127.861 109.492 128.006 109.536C127.922 109.396 127.835 109.254 127.768 109.113C127.174 107.364 125.594 106.481 124.489 105.101C124.727 105.524 124.873 105.997 124.955 106.49L124.955 106.473Z" fill="#FFDF3C"/>
<path d="M198.1 18.9705C198.263 19.11 198.411 19.2476 198.531 19.4183C198.732 19.6995 198.904 20.0113 199.075 20.3084C200.552 21.0032 201.232 22.4952 202.77 23.0915C203.968 24.3865 204.279 26.2921 204.833 27.9147C206.57 29.0957 206.982 31.1406 207.769 32.979C209.112 35.1643 211.026 36.847 212.541 38.8827C213.44 39.9026 213.428 41.692 212.278 42.5321C211.258 43.0342 209.991 43.2889 209.25 42.2631C209.979 43.815 208.839 46.6534 206.844 45.7535C206.067 45.8936 205.425 45.36 205.032 44.6888C205.014 44.6574 204.998 44.6259 204.98 44.5945C202.997 44.4936 203.039 41.7457 201.43 41.0065C202.457 42.4066 203.138 43.9775 204.243 45.3402C204.891 45.6021 205.403 46.0789 205.698 46.7217C206.518 48.1123 205.661 51.2584 203.676 50.7109C202.512 51.1198 201.559 49.976 201.344 48.9279C200.824 48.676 200.365 48.328 199.905 47.9924C198.2 48.1056 196.857 46.7026 195.914 45.445C194.151 42.2539 191.419 39.6099 188.634 37.2566C189.573 39.3435 191.624 40.8804 192.925 42.7933C193.908 44.7206 194.779 46.6521 196.429 48.1227C197.946 49.376 199.192 50.6865 198.874 52.8698C199.95 53.9152 199.789 56.0285 198.463 56.7814C198.052 56.9547 197.524 56.8783 197.176 56.5582C195.578 55.1795 194.511 53.5761 193.188 51.9157C192.914 51.8643 192.609 51.8264 192.335 51.7404C194.394 54.7304 196.438 57.7332 198.466 60.7565C198.908 61.4086 198.913 62.4004 198.393 63.0096C197.904 63.5856 197.102 63.5218 196.68 62.8813C195.024 60.4215 193.368 57.9766 191.695 55.5323C189.74 52.7482 187.768 49.9795 185.845 47.1793C184.885 46.2727 183.641 45.0732 183.004 43.8041C180.942 43.2917 180.471 39.6845 182.231 38.5328C183.776 37.5496 185.142 39.4947 185.131 40.9164C187.025 43.767 189.982 45.1885 191.435 47.7521C191.953 47.9399 192.736 47.9575 193.152 48.4058C190.238 45.6255 189.053 41.263 186.484 39.1557C185.367 38.7189 184.958 37.6016 184.568 36.5626C182.969 36.0303 182.112 34.4832 182.45 32.842C182.398 32.7625 182.366 32.702 182.314 32.6226C180.096 32.259 179.071 29.1365 180.784 27.5548C182.944 26.0057 183.962 28.8743 184.01 30.6121C184.9 30.9292 185.963 30.7931 186.589 31.6802C189.996 34.8886 192.997 38.7217 197.179 40.8943C195.387 39.4761 194.197 37.4948 193.193 35.472C191.717 34.3948 189.836 33.1871 189.525 31.2667C187.681 31.4468 186.688 29.2657 186.9 27.6785C186.587 27.4188 186.447 27.0244 186.179 26.7309C183.232 25.5952 185.713 19.8196 188.023 23.1333C188.74 23.5061 189.012 24.3571 189.45 24.9946C190.522 25.0827 191.249 26.1091 191.529 27.2016C192.618 28.6117 194.446 29.2637 195.473 30.6613C195.993 31.7596 196.464 32.8598 196.952 33.9741C197.328 34.5818 198.288 34.2596 198.861 34.6058C199.845 35.319 200.785 36.0981 201.692 36.9253C200.526 34.3189 198.761 31.9422 196.326 30.4369C195.531 28.8554 193.543 26.9016 193.877 25.1322C193.211 25.2855 192.745 24.7453 192.36 24.281C191.721 23.4265 190.661 22.8099 190.459 21.6849C189.257 21.1081 188.964 19.266 189.805 18.2598C190.955 17.02 192.403 18.5942 193.431 19.2269C192.556 15.4424 197.909 15.5947 198.114 18.9404L198.1 18.9705ZM208.559 41.2675C208.64 41.3433 208.725 41.4191 208.792 41.4981C208.668 41.2313 208.611 40.9447 208.586 40.6915C208.585 40.6422 208.583 40.5954 208.58 40.5313C208.529 40.4863 208.481 40.4561 208.447 40.408C208.151 40.2118 207.857 40.0008 207.578 39.8039C207.931 40.2694 208.268 40.7503 208.576 41.2668L208.559 41.2675ZM203.686 30.9434C203.653 30.8656 203.633 30.7874 203.598 30.7073C203.475 30.3936 203.353 30.0947 203.228 29.781C202.966 29.5811 202.688 29.4015 202.409 29.2047C202.83 29.7787 203.25 30.37 203.686 30.9434ZM199.823 26.6194C199.769 26.4932 199.732 26.3835 199.713 26.2559C199.556 24.648 198.383 23.5742 197.896 22.0774C197.667 21.9108 197.421 21.7275 197.176 21.5763C197.06 21.5017 196.958 21.3624 196.859 21.2205C195.913 21.5126 195.286 20.5787 194.388 20.4667C195.753 22.8584 197.897 24.6781 199.823 26.6194Z" fill="#FFDF3C"/>
<path d="M96.981 38.9164C99.4032 36.6542 102.944 38.7571 103.969 41.4182C105.543 44.1845 103.847 47.0585 104.001 49.9102C107.586 51.0219 107.195 55.4732 108.843 58.1578C110.533 58.9408 111.584 61.058 111.92 62.785C112.059 63.4658 112.118 64.1816 112.063 64.8721C113.41 66.3219 114.841 67.8968 115.11 69.9447C118.108 70.2642 119.954 73.5804 120.224 76.4918C121.187 77.0455 121.957 78.0382 122.376 79.012C122.586 79.468 122.731 79.9264 122.827 80.3843C123.366 80.6676 123.855 80.938 124.285 81.3684C124.716 81.7989 125.038 82.2976 125.33 82.8296C126.759 83.4941 128.113 84.2749 129.513 85.0194C131.224 85.9127 132.155 87.763 132.876 89.5718C134.907 90.4852 136.727 92.238 137.822 94.1932C140.79 92.0217 144.399 95.0794 145.135 98.0844C148.563 97.5735 151.596 99.6782 153.08 102.672C155.581 105.932 153.798 113.327 148.828 111.885C146.537 113.36 144.683 116.302 141.799 116.38C141.487 116.614 141.158 116.801 140.78 116.912C140.643 118.785 139.977 120.631 138.588 121.894C136.752 123.592 134.227 123.511 132.262 122.181C130.584 122.498 129.653 123.285 128.232 124.071C127.884 125.856 126.719 127.146 125.103 127.892C124.665 128.58 124.231 129.314 123.626 129.833C121.526 131.269 121.964 134.845 118.999 135.417C119.193 138.028 117.707 141.358 114.862 141.687C114.709 144.456 113.216 147.162 110.174 147.355C109.981 147.363 109.807 147.386 109.617 147.393C109.495 147.541 109.389 147.673 109.281 147.821C109.251 148.747 109.207 149.674 108.857 150.551C108.652 151.052 108.379 151.43 108.057 151.777C108.036 155.499 108.301 159.543 103.64 160.404C103.466 160.443 103.307 160.466 103.132 160.472C101.427 160.536 99.9785 158.962 99.3648 157.467C97.8072 154.683 97.8145 151.061 99.9247 148.571C98.9842 146.913 98.3098 144.654 97.819 143.475C97.2202 141.98 96.9327 140.301 97.1452 138.728C96.4059 137.764 95.669 136.802 94.947 135.84C93.2009 133.559 92.62 130.434 93.4283 127.707C93.3422 127.518 93.2704 127.313 93.2139 127.123C93.0674 126.571 92.9011 126.017 92.7545 125.465C90.4599 123.426 87.4139 121.818 86.6841 118.539C84.8801 117.217 84.9098 115.045 83.671 113.527C83.2671 113.416 82.8804 113.302 82.4936 113.188C80.7676 112.695 79.6028 110.582 79.3775 108.851C79.2802 108.823 79.1687 108.81 79.0715 108.784C78.8479 108.743 78.6207 108.672 78.3953 108.585C75.2934 111.015 71.2514 108.374 70.0934 105.128C69.1455 104.524 68.29 103.885 67.2674 103.398C63.4096 104.421 61.1449 101.009 60.7892 97.5088C60.4075 93.7083 62.2883 89.8379 66.8533 91.4879C70.7103 90.1121 73.1602 86.8767 76.7147 85.0656C77.0958 84.1753 77.5102 83.2493 78.2046 82.6163C78.4191 82.4158 78.6528 82.2639 78.9042 82.1262C78.981 80.8155 79.3816 79.5223 80.249 78.4362C81.5142 76.8392 83.4743 76.3364 85.3048 77.05C86.3714 75.685 87.0649 74.1736 87.6113 72.5566C86.5689 69.0351 88.3519 65.5187 91.4671 63.8376C91.4104 62.3246 90.9859 60.8082 91.5045 59.3033C89.4337 55.9955 89.6382 51.2453 91.0203 47.697C87.3633 43.3481 91.0487 33.9667 96.9336 38.9034L96.981 38.9164ZM89.4522 82.8981C90.029 86.3729 88.1874 90.8958 84.0492 90.3649C83.9679 90.3679 83.9051 90.3382 83.8238 90.3412C83.5529 90.7487 83.2137 91.1142 82.7945 91.3841C82.125 91.8237 81.2828 91.9367 80.4874 92.0455C79.1949 93.3079 78.1045 94.8959 76.2702 95.3323C78.4442 96.2576 80.134 98.7481 80.5569 101.143C80.6175 101.444 80.6751 101.731 80.7185 102.033C80.9867 102.341 81.2383 102.667 81.4258 102.996C81.545 103.213 81.6636 103.416 81.7853 103.636C83.7316 102.764 85.7326 104.67 86.4643 106.286C86.6554 106.711 86.8459 107.118 87.0388 107.525C87.4641 107.813 87.8894 108.101 88.3148 108.388C88.4618 108.494 88.5942 108.602 88.727 108.723C90.2864 109.05 91.4142 110.172 92.0729 111.551C94.9883 112.705 95.6629 116.224 96.704 118.852C96.8587 120.872 98.1829 122.101 99.2307 123.658C102.352 124.308 104.306 127.939 104.529 130.916C104.647 132.348 104.764 133.765 104.882 135.196C105.097 135.396 105.312 135.612 105.495 135.812C105.707 135.501 105.968 135.202 106.244 134.938C106.879 134.354 107.661 133.974 108.486 133.847C108.567 131.29 110.257 128.305 112.999 128.203C113.192 128.196 113.382 128.203 113.575 128.228C113.836 126.686 114.707 125.249 116.151 124.524C116.572 124.318 116.98 124.125 117.404 123.919C118.167 122.549 119.227 121.487 120.521 120.657C121.435 119.026 122.797 117.507 124.823 117.83C126.264 116.259 127.1 116.052 128.623 114.095C128.723 111.632 129.896 108.873 132.301 107.875C133.888 107.224 135.497 107.546 136.853 108.391C137.144 108.059 137.47 107.793 137.831 107.604C138.201 106.902 138.641 106.263 139.31 105.806C138.743 105.541 138.218 105.161 137.769 104.717C136.641 103.577 135.913 102.008 135.674 100.371C133.456 100.358 131.108 99.0097 129.702 97.3228C125.064 97.8642 123.071 92.8286 121.017 89.5695C120.329 89.1166 119.703 88.5972 119.227 87.8156C118.971 87.3785 118.747 86.9231 118.539 86.4374C117.81 86.2253 117.108 85.7877 116.61 85.2808C115.964 84.6338 115.502 83.8196 115.198 82.955C111.897 82.5679 109.96 78.6332 110.082 75.4826C107.843 74.4808 106.926 71.7367 106.251 69.5265C101.414 67.3463 103.633 61.8346 100.915 58.3117C100.535 59.6189 99.8135 60.8427 98.7539 61.5387C98.8918 62.6513 98.6957 63.8061 98.1451 64.8507C97.8018 65.5002 97.4586 66.1522 97.1153 66.8041C97.9918 70.5712 98.5629 76.8568 93.568 77.762C92.4737 79.6388 90.6117 81.0484 89.4201 82.8993L89.4522 82.8981Z" fill="#123DCC"/>
<path d="M66.5335 209.069C65.6309 211.849 62.4294 212.016 60.0465 212.759C59.4435 215.832 56.7056 219.416 53.2717 217.66C51.8132 221.739 49.9098 228.036 44.2451 225.551C43.3546 226.877 41.8637 227.587 40.9365 228.786C40.611 229.517 40.3379 230.262 39.7853 230.858C40.1783 234.564 39.8884 239.604 35.9761 241.283C35.382 241.559 34.8274 241.708 34.2853 241.728C28.788 241.934 26.3442 229.526 29.3187 225.868C27.5029 224.693 26.3397 222.229 26.2845 219.9C25.5062 219.147 24.974 218.113 24.6623 217.039C23.2919 215.829 22.6379 214.114 22.4115 212.351C20.8819 210.316 18.8463 210.057 16.9902 208.658C16.3109 207.98 15.861 207.104 15.4931 206.175C15.3786 206.147 15.2837 206.119 15.1864 206.09C12.809 206.979 11.1389 205.013 9.69186 203.471C4.98656 200.119 8.48827 189.194 14.716 192.282C15.4359 189.302 18.4883 188.58 21.1715 188.608C21.6499 187.744 22.2736 186.938 22.8178 186.118C22.2133 183.22 23.631 179.305 27.0092 179.178C27.3424 178.655 27.6578 178.115 27.9233 177.562C27.7173 176.741 27.6845 175.864 27.7987 175.092C27.9533 174.082 28.45 172.849 29.3156 172.114C29.3472 170.388 29.6788 168.636 30.4999 167.105C30.4541 159.889 38.444 161.011 38.6106 167.566C39.5171 168.314 40.136 169.554 40.389 170.709C43.2732 172.741 44.3454 176.661 43.8498 180.03C44.2461 180.4 44.5653 180.818 44.8222 181.287C45.0488 181.342 45.2724 181.383 45.4818 181.44C48.4594 182.078 50.0935 184.796 50.5183 187.637C53.6156 188.51 55.257 191.817 55.4493 194.842C56.4644 195.525 57.4182 196.286 58.0509 197.365C59.6184 197.911 61.0268 198.818 62.0473 200.105C66.1082 200.289 67.9702 205.662 66.5643 209.036L66.5335 209.069ZM51.6245 201.357C47.9012 202.086 45.1448 198.392 44.6835 195.039C41.0962 193.865 39.3827 189.49 40.065 185.968C39.6456 185.377 39.3483 184.685 39.2099 184.021C39.1915 183.926 39.1701 183.816 39.1517 183.72C37.2507 183.231 35.7983 181.546 34.9165 179.743C34.5282 180.444 33.9578 181.025 33.1874 181.34C33.0636 181.394 32.952 181.445 32.8281 181.497C32.5525 182.242 32.2775 183.003 32.0173 183.763C33.0905 186.787 31.8314 191.577 28.0854 191.702C27.4607 192.876 26.6745 194.085 25.6207 194.938C24.9412 197.217 24.2284 199.926 22.2739 201.435C23.2175 203.635 24.9705 205.245 26.3186 207.176C28.2487 207.518 29.7905 209.089 30.4683 210.978C31.7509 211.952 32.5999 213.341 32.8358 214.961C34.358 215.943 35.3857 217.819 35.7207 219.514C35.9173 220.481 35.9371 221.47 35.7474 222.402C37.0798 220.884 37.8539 218.955 39.5137 217.682C39.3378 214.239 41.078 209.974 45.0131 209.826L45.1092 209.823C46.5296 209.802 47.9329 209.781 49.3356 209.746C49.5971 207.308 51.2659 204.563 53.9485 204.638C54.334 204.656 54.7314 204.658 55.1175 204.69C54.0527 203.533 52.4772 202.842 51.6251 201.374L51.6245 201.357Z" fill="#123DCC"/>
<path d="M210.802 30.0228C214.263 29.9252 216.87 33.0526 218.925 35.4826C226.609 36.9343 224.824 52.776 216.456 47.5647C215.077 48.2382 213.714 48.9136 212.332 49.5082C211.572 51.4366 208.218 52.5839 206.928 53.1429C206.051 53.5755 205.086 53.3551 204.181 53.0386C203.652 53.4088 203.137 53.7637 202.625 54.1333C202.451 55.8646 201.544 57.6875 199.708 58.0746C199.438 59.8095 197.941 60.7588 197.1 62.1475C197.152 63.1523 197.158 64.1563 196.89 65.1262C196.681 65.9163 196.307 66.5521 195.85 67.1269C195.899 68.0355 195.948 68.9442 196 69.8676C196.125 72.3699 195.514 75.2033 193.268 76.6594C192.439 77.1074 191.65 77.3122 190.886 77.3408C186.007 77.5236 182.918 70.0222 185.068 65.6481C183.754 64.2119 183.009 62.2609 182.859 60.3517C182.726 58.9675 182.906 57.3963 183.529 56.0949C183.528 56.0776 183.527 56.0628 183.527 56.0456C181.645 54.8083 180.505 52.5192 180.628 50.2642C177.233 49.0812 175.996 45.0413 174.812 41.9717C174.728 41.9107 174.647 41.852 174.566 41.7909C174.255 41.5953 173.945 41.4144 173.649 41.2183C171.489 41.921 169.05 43.2733 167.032 41.37C163.759 39.2422 161.991 34.1982 165.039 31.1798C165.039 31.1798 165.038 31.1625 165.021 31.1632C167.048 27.766 170.537 27.1886 173.378 30.1147C173.645 30.0578 173.915 30.0009 174.169 29.942C174.971 27.0398 176.567 24.0584 180.01 24.344C180.412 24.0081 180.813 23.6575 181.2 23.3099C180.909 21.9464 181.044 20.4732 181.538 19.1765C182.432 16.6212 183.37 10.9651 187.039 10.0454C187.389 7.92504 186.884 5.0545 188.918 3.54222C192.567 -0.473443 196.743 4.94175 196.887 8.80046C201.358 10.1159 205.152 15.5306 203.765 20.2758C205.145 21.295 205.904 22.831 206.3 24.4447C207.9 26.2674 209.018 28.3821 210.85 29.9889L210.802 30.0228ZM201.566 30.1443C199.275 29.0507 198.401 26.6233 197.868 24.314C196.385 23.9056 195.155 22.6267 194.405 21.3766C194.27 21.1423 194.148 20.9075 194.028 20.6727C193.229 23.1775 190.917 25.3566 189.436 27.1986C188.48 28.4805 186.715 29.1215 185.212 28.5709C182.952 30.5086 183.471 34.943 179.925 35.33C183.504 37.5277 187.251 41.2515 186.275 45.885C188.595 47.3477 189.708 50.1782 189.218 52.8639C189.303 53.0211 189.373 53.1616 189.443 53.3194C190.525 53.6761 191.466 54.4872 192.201 55.4195C192.595 54.4128 193.019 53.3433 193.775 52.629C194.128 52.3123 194.55 52.0571 194.989 51.8482C195.27 49.9871 196.614 48.323 198.477 48.2532C198.765 48.2424 199.07 48.2803 199.376 48.3478C200.025 47.83 200.662 47.3101 201.311 46.7898C201.664 45.533 202.125 44.2055 203.265 43.541C205.206 42.5429 207.13 40.6029 209.471 41.3295C209.58 41.2612 209.689 41.2078 209.815 41.1562C209.268 40.5697 208.749 39.9673 208.375 39.3422C207.846 38.4516 207.505 37.4576 207.373 36.4262C205.504 34.2927 203.174 32.559 201.613 30.1598L201.566 30.1443Z" fill="#123DCC"/>
</svg>
