<svg width="916" height="305" viewBox="0 0 916 305" fill="none" xmlns="http://www.w3.org/2000/svg">
<path d="M8.24852 126V31.0956H28.3138V72.9407H29.5649L63.7175 31.0956H87.768L52.5496 73.5894L88.1851 126H64.1809L38.1842 86.9817L28.3138 99.0301V126H8.24852ZM125.06 127.39C117.738 127.39 111.436 125.907 106.153 122.942C100.902 119.945 96.8545 115.713 94.0123 110.244C91.1701 104.745 89.749 98.2423 89.749 90.7352C89.749 83.4135 91.1701 76.9877 94.0123 71.4578C96.8545 65.9279 100.855 61.6183 106.014 58.5289C111.204 55.4396 117.29 53.8949 124.272 53.8949C128.968 53.8949 133.34 54.6518 137.387 56.1656C141.465 57.6485 145.017 59.8882 148.045 62.8849C151.103 65.8815 153.482 69.6505 155.181 74.1919C156.88 78.7023 157.73 83.985 157.73 90.0401V95.4619H97.6268V83.2282H139.148C139.148 80.386 138.53 77.8682 137.294 75.6747C136.058 73.4813 134.344 71.7667 132.15 70.531C129.988 69.2644 127.47 68.6311 124.597 68.6311C121.6 68.6311 118.943 69.3262 116.626 70.7164C114.34 72.0757 112.548 73.9138 111.251 76.2308C109.953 78.5169 109.289 81.0656 109.258 83.8769V95.5083C109.258 99.0301 109.907 102.073 111.204 104.637C112.533 107.201 114.402 109.179 116.812 110.569C119.221 111.959 122.079 112.654 125.385 112.654C127.578 112.654 129.586 112.345 131.409 111.727C133.231 111.109 134.792 110.183 136.089 108.947C137.387 107.711 138.375 106.197 139.055 104.406L157.313 105.61C156.386 109.997 154.486 113.828 151.613 117.103C148.771 120.347 145.094 122.88 140.584 124.702C136.105 126.494 130.93 127.39 125.06 127.39ZM203.05 127.39C195.729 127.39 189.426 125.907 184.144 122.942C178.892 119.945 174.845 115.713 172.003 110.244C169.16 104.745 167.739 98.2423 167.739 90.7352C167.739 83.4135 169.16 76.9877 172.003 71.4578C174.845 65.9279 178.845 61.6183 184.005 58.5289C189.195 55.4396 195.281 53.8949 202.263 53.8949C206.958 53.8949 211.33 54.6518 215.377 56.1656C219.455 57.6485 223.007 59.8882 226.035 62.8849C229.093 65.8815 231.472 69.6505 233.171 74.1919C234.871 78.7023 235.72 83.985 235.72 90.0401V95.4619H175.617V83.2282H217.138C217.138 80.386 216.52 77.8682 215.284 75.6747C214.048 73.4813 212.334 71.7667 210.14 70.531C207.978 69.2644 205.46 68.6311 202.587 68.6311C199.59 68.6311 196.934 69.3262 194.617 70.7164C192.33 72.0757 190.539 73.9138 189.241 76.2308C187.944 78.5169 187.279 81.0656 187.248 83.8769V95.5083C187.248 99.0301 187.897 102.073 189.195 104.637C190.523 107.201 192.392 109.179 194.802 110.569C197.212 111.959 200.069 112.654 203.375 112.654C205.568 112.654 207.576 112.345 209.399 111.727C211.222 111.109 212.782 110.183 214.079 108.947C215.377 107.711 216.365 106.197 217.045 104.406L235.303 105.61C234.376 109.997 232.476 113.828 229.603 117.103C226.761 120.347 223.085 122.88 218.574 124.702C214.095 126.494 208.92 127.39 203.05 127.39ZM248.603 152.692V54.8217H268.065V66.7775H268.946C269.811 64.8621 271.062 62.9158 272.699 60.9386C274.368 58.9305 276.53 57.2623 279.187 55.9339C281.875 54.5746 285.211 53.8949 289.196 53.8949C294.387 53.8949 299.175 55.2542 303.562 57.9728C307.949 60.6606 311.455 64.723 314.081 70.1603C316.707 75.5666 318.02 82.3477 318.02 90.5035C318.02 98.4431 316.738 105.147 314.174 110.615C311.641 116.052 308.18 120.177 303.794 122.988C299.438 125.768 294.556 127.159 289.15 127.159C285.319 127.159 282.06 126.525 279.372 125.259C276.716 123.992 274.538 122.401 272.838 120.486C271.139 118.539 269.842 116.578 268.946 114.6H268.343V152.692H248.603ZM267.926 90.4109C267.926 94.6433 268.513 98.335 269.687 101.486C270.861 104.637 272.56 107.093 274.785 108.854C277.009 110.584 279.712 111.449 282.894 111.449C286.107 111.449 288.826 110.569 291.05 108.808C293.274 107.016 294.958 104.545 296.101 101.393C297.275 98.2114 297.862 94.5506 297.862 90.4109C297.862 86.302 297.291 82.6875 296.147 79.5673C295.004 76.4471 293.321 74.0065 291.096 72.2456C288.872 70.4847 286.138 69.6042 282.894 69.6042C279.681 69.6042 276.963 70.4538 274.738 72.1529C272.545 73.852 270.861 76.2617 269.687 79.3819C268.513 82.5022 267.926 86.1785 267.926 90.4109ZM361.753 126V31.0956H381.819V109.457H422.505V126H361.753ZM467.86 127.39C460.539 127.39 454.236 125.907 448.954 122.942C443.702 119.945 439.655 115.713 436.813 110.244C433.97 104.745 432.549 98.2423 432.549 90.7352C432.549 83.4135 433.97 76.9877 436.813 71.4578C439.655 65.9279 443.655 61.6183 448.815 58.5289C454.005 55.4396 460.091 53.8949 467.073 53.8949C471.768 53.8949 476.14 54.6518 480.187 56.1656C484.265 57.6485 487.818 59.8882 490.845 62.8849C493.904 65.8815 496.282 69.6505 497.981 74.1919C499.681 78.7023 500.53 83.985 500.53 90.0401V95.4619H440.427V83.2282H481.948C481.948 80.386 481.33 77.8682 480.094 75.6747C478.858 73.4813 477.144 71.7667 474.95 70.531C472.788 69.2644 470.27 68.6311 467.397 68.6311C464.4 68.6311 461.744 69.3262 459.427 70.7164C457.14 72.0757 455.349 73.9138 454.051 76.2308C452.754 78.5169 452.089 81.0656 452.058 83.8769V95.5083C452.058 99.0301 452.707 102.073 454.005 104.637C455.333 107.201 457.202 109.179 459.612 110.569C462.022 111.959 464.879 112.654 468.185 112.654C470.378 112.654 472.386 112.345 474.209 111.727C476.032 111.109 477.592 110.183 478.889 108.947C480.187 107.711 481.175 106.197 481.855 104.406L500.113 105.61C499.186 109.997 497.286 113.828 494.413 117.103C491.571 120.347 487.895 122.88 483.384 124.702C478.905 126.494 473.73 127.39 467.86 127.39ZM533.71 127.344C529.168 127.344 525.121 126.556 521.569 124.981C518.016 123.374 515.204 121.011 513.135 117.89C511.096 114.739 510.076 110.816 510.076 106.12C510.076 102.166 510.802 98.8447 512.254 96.157C513.706 93.4693 515.683 91.3068 518.186 89.6694C520.688 88.0321 523.53 86.7963 526.712 85.9622C529.925 85.1281 533.293 84.5411 536.814 84.2013C540.954 83.7688 544.291 83.3672 546.824 82.9965C549.357 82.5948 551.195 82.0079 552.338 81.2355C553.481 80.4632 554.053 79.3202 554.053 77.8064V77.5283C554.053 74.5935 553.126 72.3228 551.272 70.7164C549.45 69.1099 546.855 68.3067 543.487 68.3067C539.935 68.3067 537.108 69.0945 535.007 70.67C532.906 72.2147 531.516 74.161 530.837 76.5089L512.579 75.026C513.505 70.7009 515.328 66.9628 518.047 63.8117C520.765 60.6297 524.272 58.1891 528.566 56.49C532.891 54.7599 537.896 53.8949 543.58 53.8949C547.534 53.8949 551.319 54.3583 554.933 55.2851C558.579 56.2119 561.807 57.6485 564.618 59.5947C567.461 61.541 569.7 64.0434 571.338 67.1018C572.975 70.1294 573.794 73.7593 573.794 77.9917V126H555.072V116.13H554.516C553.373 118.354 551.844 120.316 549.929 122.015C548.013 123.683 545.712 124.996 543.024 125.954C540.336 126.88 537.231 127.344 533.71 127.344ZM539.363 113.72C542.267 113.72 544.831 113.148 547.056 112.005C549.28 110.831 551.025 109.256 552.292 107.279C553.559 105.301 554.192 103.062 554.192 100.559V93.0059C553.574 93.4075 552.724 93.7782 551.643 94.1181C550.593 94.427 549.403 94.7205 548.075 94.9985C546.747 95.2457 545.418 95.4774 544.09 95.6936C542.761 95.879 541.557 96.0489 540.475 96.2034C538.158 96.5432 536.135 97.0838 534.405 97.8253C532.675 98.5667 531.331 99.5707 530.373 100.837C529.415 102.073 528.937 103.618 528.937 105.471C528.937 108.159 529.91 110.213 531.856 111.635C533.833 113.025 536.336 113.72 539.363 113.72ZM589.109 126V54.8217H608.248V67.2409H608.989C610.287 62.8231 612.464 59.4866 615.523 57.2314C618.581 54.9453 622.103 53.8022 626.088 53.8022C627.077 53.8022 628.143 53.864 629.286 53.9876C630.429 54.1112 631.433 54.2811 632.298 54.4973V72.0139C631.371 71.7358 630.089 71.4887 628.452 71.2724C626.814 71.0562 625.316 70.9481 623.957 70.9481C621.053 70.9481 618.458 71.5814 616.172 72.848C613.916 74.0837 612.125 75.8138 610.796 78.0381C609.499 80.2624 608.85 82.8265 608.85 85.7305V126H589.109ZM662.245 84.8501V126H642.504V54.8217H661.318V67.3799H662.153C663.728 63.2402 666.37 59.9655 670.077 57.5558C673.784 55.1152 678.279 53.8949 683.562 53.8949C688.505 53.8949 692.814 54.9762 696.491 57.1387C700.167 59.3013 703.024 62.3906 705.063 66.4067C707.102 70.392 708.122 75.1495 708.122 80.6795V126H688.381V84.2013C688.412 79.8453 687.3 76.4471 685.045 74.0065C682.789 71.535 679.685 70.2993 675.73 70.2993C673.073 70.2993 670.725 70.8708 668.687 72.0139C666.678 73.1569 665.103 74.8252 663.96 77.0186C662.848 79.1811 662.276 81.7916 662.245 84.8501ZM723.681 126V54.8217H743.421V126H723.681ZM733.597 45.6464C730.662 45.6464 728.145 44.6733 726.044 42.727C723.974 40.7498 722.939 38.3865 722.939 35.637C722.939 32.9183 723.974 30.5859 726.044 28.6396C728.145 26.6624 730.662 25.6738 733.597 25.6738C736.532 25.6738 739.035 26.6624 741.104 28.6396C743.205 30.5859 744.256 32.9183 744.256 35.637C744.256 38.3865 743.205 40.7498 741.104 42.727C739.035 44.6733 736.532 45.6464 733.597 45.6464ZM778.976 84.8501V126H759.235V54.8217H778.049V67.3799H778.883C780.459 63.2402 783.1 59.9655 786.807 57.5558C790.514 55.1152 795.009 53.8949 800.292 53.8949C805.235 53.8949 809.545 54.9762 813.221 57.1387C816.897 59.3013 819.755 62.3906 821.794 66.4067C823.833 70.392 824.852 75.1495 824.852 80.6795V126H805.112V84.2013C805.142 79.8453 804.03 76.4471 801.775 74.0065C799.52 71.535 796.415 70.2993 792.461 70.2993C789.804 70.2993 787.456 70.8708 785.417 72.0139C783.409 73.1569 781.833 74.8252 780.69 77.0186C779.578 79.1811 779.007 81.7916 778.976 84.8501ZM872.478 154.175C866.083 154.175 860.6 153.294 856.028 151.533C851.486 149.803 847.872 147.44 845.184 144.443C842.496 141.447 840.751 138.079 839.948 134.341L858.206 131.885C858.762 133.306 859.642 134.635 860.847 135.87C862.052 137.106 863.643 138.095 865.62 138.836C867.628 139.609 870.069 139.995 872.942 139.995C877.236 139.995 880.773 138.944 883.554 136.844C886.365 134.774 887.771 131.298 887.771 126.417V113.396H886.936C886.071 115.373 884.774 117.242 883.044 119.003C881.314 120.764 879.09 122.2 876.371 123.312C873.652 124.424 870.409 124.981 866.64 124.981C861.295 124.981 856.429 123.745 852.042 121.273C847.686 118.771 844.211 114.956 841.616 109.827C839.052 104.668 837.77 98.1496 837.77 90.2718C837.77 82.2087 839.083 75.4739 841.709 70.0676C844.335 64.6613 847.825 60.6142 852.181 57.9265C856.568 55.2388 861.372 53.8949 866.593 53.8949C870.578 53.8949 873.915 54.5746 876.603 55.9339C879.29 57.2623 881.453 58.9305 883.09 60.9386C884.758 62.9158 886.041 64.8621 886.936 66.7775H887.678V54.8217H907.28V126.695C907.28 132.75 905.797 137.817 902.831 141.895C899.865 145.973 895.757 149.031 890.505 151.07C885.284 153.14 879.275 154.175 872.478 154.175ZM872.895 110.152C876.077 110.152 878.765 109.364 880.959 107.788C883.183 106.182 884.882 103.896 886.056 100.93C887.261 97.9334 887.863 94.3498 887.863 90.1792C887.863 86.0086 887.276 82.394 886.102 79.3356C884.928 76.2463 883.229 73.852 881.005 72.1529C878.781 70.4538 876.077 69.6042 872.895 69.6042C869.652 69.6042 866.918 70.4847 864.693 72.2456C862.469 73.9756 860.785 76.3853 859.642 79.4746C858.499 82.564 857.928 86.1321 857.928 90.1792C857.928 94.288 858.499 97.8407 859.642 100.837C860.816 103.803 862.5 106.105 864.693 107.742C866.918 109.348 869.652 110.152 872.895 110.152ZM95.4604 236.548C95.4604 246.897 93.4987 255.702 89.5753 262.962C85.6827 270.222 80.369 275.767 73.6343 279.598C66.9304 283.398 59.3925 285.298 51.0204 285.298C42.5865 285.298 35.0176 283.382 28.3138 279.551C21.6099 275.721 16.3117 270.175 12.4191 262.915C8.52656 255.655 6.58028 246.866 6.58028 236.548C6.58028 226.199 8.52656 217.394 12.4191 210.134C16.3117 202.874 21.6099 197.344 28.3138 193.544C35.0176 189.714 42.5865 187.798 51.0204 187.798C59.3925 187.798 66.9304 189.714 73.6343 193.544C80.369 197.344 85.6827 202.874 89.5753 210.134C93.4987 217.394 95.4604 226.199 95.4604 236.548ZM75.1172 236.548C75.1172 229.844 74.1131 224.19 72.1051 219.587C70.1279 214.984 67.3321 211.493 63.7175 209.115C60.103 206.736 55.8706 205.546 51.0204 205.546C46.1701 205.546 41.9377 206.736 38.3232 209.115C34.7087 211.493 31.8974 214.984 29.8893 219.587C27.9121 224.19 26.9236 229.844 26.9236 236.548C26.9236 243.252 27.9121 248.905 29.8893 253.508C31.8974 258.111 34.7087 261.602 38.3232 263.981C41.9377 266.36 46.1701 267.549 51.0204 267.549C55.8706 267.549 60.103 266.36 63.7175 263.981C67.3321 261.602 70.1279 258.111 72.1051 253.508C74.1131 248.905 75.1172 243.252 75.1172 236.548ZM129.694 242.85V284H109.953V212.822H128.767V225.38H129.601C131.177 221.24 133.818 217.965 137.526 215.556C141.233 213.115 145.728 211.895 151.011 211.895C155.953 211.895 160.263 212.976 163.939 215.139C167.616 217.301 170.473 220.391 172.512 224.407C174.551 228.392 175.571 233.15 175.571 238.679V284H155.83V242.201C155.861 237.845 154.749 234.447 152.493 232.006C150.238 229.535 147.133 228.299 143.179 228.299C140.522 228.299 138.174 228.871 136.135 230.014C134.127 231.157 132.552 232.825 131.409 235.019C130.297 237.181 129.725 239.792 129.694 242.85ZM259.191 212.822V227.651H216.327V212.822H259.191ZM226.058 195.769H245.799V262.128C245.799 263.95 246.077 265.371 246.633 266.391C247.189 267.379 247.962 268.074 248.95 268.476C249.97 268.878 251.144 269.079 252.472 269.079C253.399 269.079 254.326 269.001 255.252 268.847C256.179 268.661 256.89 268.522 257.384 268.43L260.489 283.12C259.5 283.428 258.11 283.784 256.318 284.185C254.526 284.618 252.348 284.88 249.784 284.973C245.027 285.159 240.856 284.525 237.272 283.073C233.72 281.621 230.955 279.366 228.978 276.308C227 273.249 226.027 269.387 226.058 264.723V195.769ZM272.051 284V212.822H291.189V225.241H291.931C293.228 220.823 295.406 217.487 298.464 215.231C301.523 212.945 305.045 211.802 309.03 211.802C310.019 211.802 311.084 211.864 312.227 211.988C313.371 212.111 314.375 212.281 315.24 212.497V230.014C314.313 229.736 313.031 229.489 311.393 229.272C309.756 229.056 308.258 228.948 306.898 228.948C303.994 228.948 301.399 229.581 299.113 230.848C296.858 232.084 295.066 233.814 293.738 236.038C292.44 238.262 291.792 240.827 291.792 243.731V284H272.051ZM343.704 285.344C339.163 285.344 335.116 284.556 331.563 282.981C328.01 281.374 325.199 279.011 323.129 275.89C321.09 272.739 320.071 268.816 320.071 264.12C320.071 260.166 320.797 256.845 322.249 254.157C323.7 251.469 325.678 249.307 328.18 247.669C330.682 246.032 333.525 244.796 336.707 243.962C339.92 243.128 343.287 242.541 346.809 242.201C350.948 241.769 354.285 241.367 356.818 240.996C359.351 240.595 361.19 240.008 362.333 239.236C363.476 238.463 364.047 237.32 364.047 235.806V235.528C364.047 232.593 363.12 230.323 361.267 228.716C359.444 227.11 356.849 226.307 353.482 226.307C349.929 226.307 347.102 227.094 345.001 228.67C342.901 230.215 341.511 232.161 340.831 234.509L322.573 233.026C323.5 228.701 325.322 224.963 328.041 221.812C330.76 218.63 334.266 216.189 338.56 214.49C342.885 212.76 347.89 211.895 353.574 211.895C357.529 211.895 361.313 212.358 364.928 213.285C368.573 214.212 371.801 215.648 374.613 217.595C377.455 219.541 379.695 222.043 381.332 225.102C382.969 228.129 383.788 231.759 383.788 235.992V284H365.067V274.13H364.511C363.368 276.354 361.838 278.316 359.923 280.015C358.008 281.683 355.706 282.996 353.018 283.954C350.331 284.88 347.226 285.344 343.704 285.344ZM349.357 271.72C352.261 271.72 354.826 271.148 357.05 270.005C359.274 268.831 361.02 267.256 362.286 265.279C363.553 263.301 364.186 261.062 364.186 258.559V251.006C363.568 251.408 362.719 251.778 361.638 252.118C360.587 252.427 359.398 252.72 358.069 252.999C356.741 253.246 355.413 253.477 354.084 253.694C352.756 253.879 351.551 254.049 350.47 254.203C348.153 254.543 346.129 255.084 344.399 255.825C342.669 256.567 341.325 257.571 340.367 258.837C339.41 260.073 338.931 261.618 338.931 263.471C338.931 266.159 339.904 268.213 341.85 269.635C343.828 271.025 346.33 271.72 349.357 271.72ZM431.263 285.39C423.973 285.39 417.701 283.846 412.449 280.756C407.228 277.636 403.212 273.311 400.401 267.781C397.621 262.251 396.23 255.887 396.23 248.689C396.23 241.398 397.636 235.003 400.447 229.504C403.289 223.974 407.321 219.665 412.542 216.575C417.763 213.455 423.973 211.895 431.171 211.895C437.38 211.895 442.818 213.023 447.482 215.278C452.147 217.533 455.839 220.7 458.558 224.777C461.276 228.855 462.775 233.644 463.053 239.143H444.424C443.899 235.59 442.509 232.732 440.253 230.57C438.029 228.377 435.11 227.28 431.495 227.28C428.437 227.28 425.764 228.114 423.478 229.782C421.223 231.42 419.462 233.814 418.196 236.965C416.929 240.116 416.296 243.931 416.296 248.411C416.296 252.952 416.913 256.814 418.149 259.996C419.416 263.178 421.192 265.603 423.478 267.271C425.764 268.939 428.437 269.774 431.495 269.774C433.75 269.774 435.774 269.31 437.566 268.383C439.388 267.457 440.887 266.113 442.061 264.352C443.265 262.56 444.053 260.413 444.424 257.911H463.053C462.744 263.348 461.261 268.136 458.604 272.276C455.978 276.385 452.348 279.598 447.714 281.915C443.08 284.232 437.597 285.39 431.263 285.39ZM493.579 263.518L493.626 239.838H496.499L519.298 212.822H541.958L511.327 248.596H506.647L493.579 263.518ZM475.692 284V189.096H495.433V284H475.692ZM520.178 284L499.233 252.999L512.393 239.05L543.302 284H520.178Z" fill="black"/>
<path d="M385.5 180C552 149 749.5 145.179 909 202.5M431.5 153.5C597 130 712.5 131.5 861.5 169.507" stroke="#F28A8A" stroke-width="7" stroke-linecap="round"/>
</svg>
