<svg width="174" height="188" viewBox="0 0 174 188" fill="none" xmlns="http://www.w3.org/2000/svg">
<mask id="mask0_13_42" style="mask-type:luminance" maskUnits="userSpaceOnUse" x="0" y="80" width="57" height="82">
<path d="M37.6552 161.212L0.417168 151.033L19.714 80.4342L56.952 90.6124L37.6552 161.212Z" fill="white"/>
</mask>
<g mask="url(#mask0_13_42)">
<path fill-rule="evenodd" clip-rule="evenodd" d="M34.29 157.769C44.3004 151.6 44.8681 133.944 35.9407 107.11C33.8548 100.926 30.7482 92.8169 28.9075 88.9259C25.9874 82.6089 25.4797 81.9864 22.8103 81.8376C21.2955 81.7148 19.8453 81.7051 19.6168 81.8368C19.2968 81.9418 18.6781 106.166 18.4375 124.396C18.3647 137.058 20.0214 148.352 22.7378 153.644C25.2407 158.297 30.3663 160.085 34.29 157.769ZM28.0639 147.258C25.5865 139.321 24.8574 126.054 25.5196 99.9062C25.5371 97.0068 31.644 116.099 33.2772 124.289C35.0747 133.299 35.2505 140.801 33.7732 146.205C32.0499 152.51 29.8868 152.984 28.0639 147.258Z" fill="black"/>
</g>
<path fill-rule="evenodd" clip-rule="evenodd" d="M125.085 177.262C128.166 173.07 129.406 166.052 128.248 158.96C124.884 139.745 113.723 121.789 99.4712 112.665C94.265 109.403 93.3812 108.386 93.0304 105.775C92.7934 104.161 90.1096 98.3945 87.0334 93.0041C79.3756 79.5855 67.9818 69.2099 53.8748 62.7411C46.63 59.5021 38.7684 59.5796 40.7321 63.0205C41.0592 63.5937 44.7423 66.0533 48.812 68.5198C57.9151 73.8151 66.5847 80.3477 72.1416 86.222C76.7486 90.9663 85.1029 104.672 84.0385 105.737C83.6691 106.023 81.8753 106.211 80.09 106.012C78.1004 105.857 74.9549 106.739 72.3419 108.154C62.2082 113.709 62.2671 126.599 72.4428 132.576C75.4395 134.362 76.4794 134.452 80.5741 133.636C85.6941 132.615 90.7901 128.491 92.0113 124.372C92.3561 123.111 93.136 121.679 93.6682 121.146C96.2335 118.846 109.246 132.858 114.343 143.253C117.746 150.281 119.78 158.775 120.716 169.872C120.999 174.499 121.841 178.506 122.308 178.923C122.889 179.276 124.15 178.556 125.085 177.262ZM74.724 123.519C72.8823 121.757 73.9753 117.409 76.5883 115.994C77.6857 115.519 80.1839 115.234 82.0828 115.367L85.6786 115.671L84.7186 119.184C83.0443 125.309 78.6542 127.206 74.724 123.519Z" fill="black"/>
<mask id="mask1_13_42" style="mask-type:luminance" maskUnits="userSpaceOnUse" x="129" y="80" width="31" height="28">
<path d="M154.196 107.599L129.585 100.872L135.13 80.5849L159.741 87.3117L154.196 107.599Z" fill="white"/>
</mask>
<g mask="url(#mask1_13_42)">
<path fill-rule="evenodd" clip-rule="evenodd" d="M149.588 102.841C151.997 101.467 153.569 101.025 153.643 101.82C153.862 104.203 155.772 101.821 156.831 97.9474C159.514 88.1303 147.145 79.9101 137.379 85.1784C133.299 87.3542 131.332 91.3661 132.213 95.5758C133.146 99.6053 136.387 102.621 141.521 104.024C144.943 104.959 146.237 104.829 149.588 102.841ZM141.117 95.5889C139.331 94.3258 140.078 92.3037 142.469 91.7002C145.36 91.0375 147.538 91.9241 149.592 94.3235L151.336 96.4454L148.313 96.8781C144.997 97.3274 142.966 96.9666 141.117 95.5889Z" fill="black"/>
</g>
<path fill-rule="evenodd" clip-rule="evenodd" d="M138.382 48.572C146.556 48.7724 152.044 46.4006 153.25 41.9865C153.816 39.915 151.182 35.0337 148.308 32.7954C141.204 27.2731 123.706 22.5858 102.814 20.7488C90.8997 19.7185 68.6816 19.5495 66.8466 20.598C65.3557 21.4475 69.7846 24.0139 85.1039 31.0082C110.091 42.2905 128.104 48.2786 138.382 48.572ZM105.806 32.1172C99.8283 29.9024 95.6373 27.8864 96.3406 27.7874C101.715 26.5463 137.71 34.7395 142.099 38.1652C145.036 40.5165 144.144 40.9506 137.38 40.553C130.231 40.149 119.128 37.2096 105.806 32.1172Z" fill="black"/>
</svg>
