<svg width="108" height="107" viewBox="0 0 108 107" fill="none" xmlns="http://www.w3.org/2000/svg">
<path d="M41.3468 63.601C41.3468 64.8266 40.3532 65.8202 39.1276 65.8202C37.902 65.8202 36.9084 64.8266 36.9084 63.601C36.9084 62.3754 37.902 61.3818 39.1276 61.3818C40.3532 61.3818 41.3468 62.3754 41.3468 63.601Z" fill="#D9D9D9"/>
<path d="M72.8599 68.0395C72.8599 69.2651 71.8663 70.2587 70.6407 70.2587C69.415 70.2587 68.4215 69.2651 68.4215 68.0395C68.4215 66.8138 69.415 65.8203 70.6407 65.8203C71.8663 65.8203 72.8599 66.8138 72.8599 68.0395Z" fill="#D9D9D9"/>
<path d="M44.4567 39.1894C44.4567 40.415 43.4631 41.4086 42.2375 41.4086C41.0119 41.4086 40.0183 40.415 40.0183 39.1894C40.0183 37.9638 41.0119 36.9702 42.2375 36.9702C43.4631 36.9702 44.4567 37.9638 44.4567 39.1894Z" fill="#D9D9D9"/>
<path d="M85.4249 50.7228L37.7396 22.8122C37.2907 22.5495 36.713 22.7273 36.4896 23.1971L23.5914 50.321M24.0366 81.3545H84.3988C84.8891 81.3545 85.2865 80.957 85.2865 80.4668V51.1734C85.2865 50.6831 84.8891 50.2857 84.3988 50.2857H24.0366C23.5464 50.2857 23.1489 50.6831 23.1489 51.1734V80.4668C23.1489 80.957 23.5464 81.3545 24.0366 81.3545ZM41.3468 63.601C41.3468 64.8266 40.3532 65.8202 39.1276 65.8202C37.902 65.8202 36.9084 64.8266 36.9084 63.601C36.9084 62.3754 37.902 61.3818 39.1276 61.3818C40.3532 61.3818 41.3468 62.3754 41.3468 63.601ZM72.8599 68.0395C72.8599 69.2651 71.8663 70.2587 70.6407 70.2587C69.415 70.2587 68.4215 69.2651 68.4215 68.0395C68.4215 66.8138 69.415 65.8203 70.6407 65.8203C71.8663 65.8203 72.8599 66.8138 72.8599 68.0395ZM44.4567 39.1894C44.4567 40.415 43.4631 41.4086 42.2375 41.4086C41.0119 41.4086 40.0183 40.415 40.0183 39.1894C40.0183 37.9638 41.0119 36.9702 42.2375 36.9702C43.4631 36.9702 44.4567 37.9638 44.4567 39.1894Z" stroke="#D9D9D9" stroke-width="6.6576"/>
</svg>
