<svg width="155" height="29" viewBox="0 0 155 29" fill="none" xmlns="http://www.w3.org/2000/svg">
<g clip-path="url(#clip0_54_119)">
<path d="M121.539 5.66572C123.732 5.76958 125.635 6.40462 127.331 7.77147C129.117 9.20995 130.199 11.0469 130.525 13.2418C131.229 17.9882 128.806 22.4609 123.444 23.76C121.375 24.2615 119.242 24.1064 117.288 23.0633C116.725 22.7627 116.212 22.3673 115.604 21.9677C115.604 22.6511 115.604 23.2551 115.604 23.904C114.443 23.904 113.332 23.904 112.18 23.904C112.18 15.9496 112.18 7.99513 112.18 0.00455475C113.288 0.00455475 114.384 0.00455475 115.551 0.00455475C115.551 2.55201 115.551 5.11828 115.551 7.82716C117.316 6.26327 119.277 5.61946 121.539 5.66572ZM115.768 13.1032C115.707 13.8183 115.577 14.5354 115.599 15.248C115.661 17.3467 116.711 18.9001 118.471 19.9552C119.521 20.585 120.682 20.7982 121.938 20.6549C123.681 20.4559 125.045 19.7042 126.096 18.3007C127.111 16.9463 127.267 15.4003 127.086 13.8241C126.932 12.4843 126.296 11.2994 125.27 10.4004C124.083 9.36014 122.684 8.9764 121.082 8.94426C118.846 8.89939 116.369 10.9508 115.768 13.1032Z" fill="#5AC1AE"/>
<path d="M21.2497 24.48C21.2497 25.69 21.2497 26.8338 21.2497 28.0172C20.0943 28.0172 18.9832 28.0172 17.8384 28.0172C17.8384 20.6194 17.8384 13.2395 17.8384 5.82894C18.9633 5.82894 20.0587 5.82894 21.2278 5.82894C21.2278 6.40303 21.2278 6.98109 21.2278 7.7116C23.2646 5.96539 25.5295 5.45315 27.9965 5.727C30.5236 6.00752 32.6343 7.12492 34.2235 9.10404C37.4367 13.1057 36.6082 18.8637 32.8852 21.9274C29.704 24.5451 24.2073 24.7329 21.2497 21.9252C21.2497 22.8243 21.2497 23.6191 21.2497 24.48ZM22.303 18.4414C23.7168 20.0987 25.4398 20.9609 27.6797 20.647C29.3147 20.418 30.5962 19.6654 31.5945 18.3604C32.5259 17.1429 32.7328 15.7657 32.6497 14.288C32.5327 12.2059 31.5427 10.6247 29.7524 9.67153C27.6504 8.5524 25.4903 8.60632 23.5161 10.0481C22.0445 11.1228 21.2326 12.6086 21.1126 14.4574C21.0186 15.9039 21.4301 17.1917 22.303 18.4414Z" fill="#5AC1AE"/>
<path d="M5.70834 23.7281C2.81195 23.2585 0.201653 20.6724 0.0460549 17.6782C0.020533 17.187 -0.0628661 16.6989 -0.124512 16.1662C1.20086 16.1662 2.42931 16.1662 3.68864 16.1662C3.76756 16.7914 3.78258 17.4477 3.94242 18.0666C4.2945 19.4298 5.24539 20.2145 6.60325 20.4628C8.15433 20.7464 9.61486 20.5922 10.7925 19.3717C12.4024 17.703 12.2035 15.1525 9.92936 14.0793C8.44231 13.3776 6.81852 12.9665 5.25799 12.4194C3.80032 11.9084 2.42894 11.2253 1.52623 9.92542C0.488374 8.43094 0.340814 6.73352 0.784072 5.00883C1.4861 2.27729 3.41628 0.833084 6.05844 0.240251C7.6657 -0.120379 9.26258 -0.0474887 10.8143 0.581606C13.5309 1.68296 15.3597 4.19493 14.9892 7.34002C13.7962 7.34002 12.596 7.34002 11.532 7.34002C11.2317 6.50691 11.0492 5.65404 10.6365 4.93302C9.92639 3.69257 8.70531 3.27312 7.34129 3.43022C5.95992 3.58932 4.99578 4.40798 4.48019 5.69064C4.05952 6.73714 4.61262 8.13881 5.73867 8.61084C7.08128 9.17367 8.4925 9.5736 9.87614 10.0377C12.6165 10.9569 14.9017 12.406 15.4683 15.4834C15.8179 17.3822 15.5866 19.2642 14.3249 20.8691C12.2318 23.5315 9.45303 24.319 6.2083 23.8199C6.05805 23.7968 5.90692 23.7793 5.70834 23.7281Z" fill="#5AC1AE"/>
<path d="M58.5112 20.9996C57.1205 19.4305 56.3646 17.68 56.1966 15.5983C56.0178 13.383 56.4724 11.3658 57.7265 9.59045C59.2542 7.42782 61.3749 6.15291 64.045 5.78367C66.2781 5.47487 68.3537 5.79382 70.2725 6.9954C70.5083 7.14305 70.7095 7.34594 71.0311 7.60839C71.0311 6.91846 71.0311 6.32607 71.0311 5.70069C72.2602 5.70069 73.3998 5.70069 74.5922 5.70069C74.5922 11.7395 74.5922 17.7937 74.5922 23.8989C73.4682 23.8989 72.3129 23.8989 71.1049 23.8989C71.1049 23.3536 71.1049 22.7895 71.1049 22.1771C66.5919 24.8849 62.4025 24.6962 58.5112 20.9996ZM60.395 17.8529C61.8546 20.5079 65.6594 21.637 68.5186 19.843C71.1672 18.1812 72.1316 14.6376 70.3764 11.7391C68.6582 8.90164 65.4211 8.18103 62.5999 9.64928C59.5511 11.236 58.9558 15.1505 60.395 17.8529Z" fill="#5AC1AE"/>
<path d="M103.237 6.06714C104.201 6.53983 105.112 7.00783 106.032 7.4804C106.032 6.96057 106.032 6.3556 106.032 5.70888C107.194 5.70888 108.305 5.70888 109.453 5.70888C109.453 11.7697 109.453 17.8236 109.453 23.9137C108.344 23.9137 107.249 23.9137 106.081 23.9137C106.081 23.3116 106.081 22.6873 106.081 21.9203C104.169 23.6236 102 24.089 99.6599 23.9469C97.3225 23.805 95.2838 22.9198 93.6397 21.2646C90.6202 18.2248 90.2164 13.4644 92.3477 10.0582C94.8311 6.08933 99.2571 4.93522 103.237 6.06714ZM105.457 12.0329C105.054 11.4982 104.719 10.8904 104.235 10.4432C103.074 9.3707 101.688 8.89414 100.074 8.96157C98.1448 9.04219 96.6774 9.88982 95.5756 11.4106C93.838 13.8092 94.203 17.6781 96.8249 19.5842C98.577 20.8579 101.212 21.0913 102.999 20.0959C105.921 18.469 106.991 15.155 105.457 12.0329Z" fill="#5AC1AE"/>
<path d="M86.1351 21.8573C85.3501 20.8962 84.6008 19.9671 83.8464 19.0422C83.4904 18.6058 83.1246 18.1773 82.7143 17.6869C82.0622 18.514 81.4006 19.3287 80.7757 20.1707C80.6781 20.3022 80.7413 20.5577 80.7409 20.7558C80.7386 21.7909 80.7398 22.826 80.7398 23.9499C80.1414 23.9499 79.5767 23.9499 79.012 23.9499C78.4643 23.9499 77.9166 23.9499 77.3325 23.9499C77.3325 15.9439 77.3325 7.98773 77.3325 0C78.4521 0 79.5479 0 80.7173 0C80.7173 4.81362 80.7173 9.6307 80.7173 14.4478C80.763 14.4648 80.8087 14.4819 80.8545 14.499C81.5215 13.6379 82.1915 12.7791 82.855 11.9153C84.3973 9.9071 85.9326 7.89341 87.4864 5.8941C87.5866 5.76515 87.8191 5.67797 87.9914 5.67571C89.3366 5.65804 90.6821 5.66593 92.1677 5.66593C89.7099 8.78418 87.3165 11.8209 84.8966 14.8911C87.3714 17.8489 89.8713 20.8368 92.4744 23.948C90.9174 23.948 89.5182 23.974 88.1218 23.9232C87.8806 23.9144 87.6197 23.6086 87.4227 23.3905C86.9863 22.9073 86.5846 22.3927 86.1351 21.8573Z" fill="#5AC1AE"/>
<path d="M52.6255 18.1675C53.613 18.5452 54.562 18.8908 55.5582 19.2536C54.0988 21.4845 52.2613 23.227 49.5673 23.804C45.9608 24.5764 42.8342 23.6163 40.389 20.8617C38.486 18.7178 37.8573 16.1316 38.3374 13.2904C38.9721 9.53407 41.2236 7.06122 44.7602 6.0219C48.3826 4.95735 51.6748 5.87135 54.312 8.71349C54.6614 9.09015 54.719 9.38583 54.2943 9.80598C50.9994 13.0651 47.7298 16.3499 44.4527 19.627C44.3752 19.7045 44.3011 19.7854 44.2245 19.8657C46.086 21.3129 48.9888 21.1078 50.7794 19.7725C51.3287 19.3629 51.7641 18.8015 52.2604 18.3186C52.3469 18.2344 52.4771 18.1952 52.6255 18.1675ZM42.0585 11.9921C41.1979 13.8057 41.1106 15.6218 41.9314 17.3581C44.5989 14.6903 47.2538 12.035 49.897 9.39147C48.5986 8.78927 47.1867 8.66336 45.6975 9.07901C44.0923 9.52699 43.0068 10.5854 42.0585 11.9921Z" fill="#5AC1AE"/>
<path d="M154.407 18.5158C153.005 21.4695 150.765 23.3486 147.585 23.9258C145.152 24.3673 142.839 23.8726 140.766 22.4865C139.54 21.6664 138.597 20.5651 137.782 19.2348C138.783 18.8894 139.726 18.5508 140.681 18.2506C140.804 18.212 141.016 18.3414 141.142 18.4466C141.811 19.0053 142.402 19.6859 143.137 20.1302C144.906 21.1996 147.6 21.1137 149.101 19.8535C145.593 16.3488 142.087 12.8444 138.563 9.32338C140.149 7.42761 141.954 6.134 144.384 5.78128C146.783 5.43294 149.021 5.77414 151.029 7.14162C153.43 8.77726 154.858 11.0103 155.086 13.9811C155.207 15.5456 155.058 17.0325 154.407 18.5158ZM151.759 16.3203C152.053 15.3694 152.004 14.4152 151.804 13.4547C151.514 12.0683 150.666 11.0485 149.659 10.1247C148.124 8.7155 145.081 8.40777 143.351 9.4545C146.015 12.1158 148.691 14.7885 151.373 17.4686C151.48 17.1802 151.618 16.8059 151.759 16.3203Z" fill="#5AC1AE"/>
<path d="M132.412 8.44808C132.412 5.60409 132.412 2.82635 132.412 0.00863647C133.567 0.00863647 134.679 0.00863647 135.824 0.00863647C135.824 7.96645 135.824 15.9063 135.824 23.898C134.726 23.898 133.615 23.898 132.412 23.898C132.412 18.7818 132.412 13.6481 132.412 8.44808Z" fill="#5AC1AE"/>
</g>
<defs>
<clipPath id="clip0_54_119">
<rect width="155" height="28.0172" fill="white"/>
</clipPath>
</defs>
</svg>
