<svg width="51" height="48" viewBox="0 0 51 48" fill="none" xmlns="http://www.w3.org/2000/svg">
<path d="M11.4534 21.8351C9.8029 19.8853 8.11215 18.0318 7.42631 15.508C6.37115 11.6253 6.91443 8.04895 9.33376 4.8058C11.2204 2.2767 13.7592 0.765836 16.8368 0.153553C17.389 0.0436927 17.9642 0.00897698 18.5289 0.00814717C25.1082 -0.00152675 31.6876 -0.00214737 38.267 0.00397438C40.896 0.00641956 43.3142 0.746446 45.4243 2.30891C47.7307 4.01677 49.2889 6.27628 49.9728 9.08917C50.8455 12.6782 50.2291 16.0049 48.1011 19.0238C46.2138 21.7013 43.6365 23.3233 40.3961 23.8448C39.4152 24.0026 38.4192 24.0672 37.3468 24.1836C37.7921 24.7527 38.216 25.2851 38.6298 25.8251C39.7748 27.3194 40.9956 28.764 42.0322 30.3303C42.8318 31.5385 43.2238 32.9808 43.3238 34.4228C43.4656 36.4692 43.4039 38.5167 42.5606 40.4607C41.7521 42.3246 40.6298 43.9271 39.039 45.2215C37.4238 46.536 35.6189 47.3847 33.5779 47.7434C33.0238 47.8407 32.4618 47.9541 31.9032 47.9553C25.368 47.9701 18.8328 47.9566 12.2976 47.9684C9.23198 47.9739 6.52571 47.0595 4.17743 45.0475C1.90431 43.0998 0.595471 40.6564 0.153108 37.7191C-0.373073 34.2253 0.45498 31.0512 2.66816 28.3377C4.54516 26.0364 6.97632 24.5065 9.99759 24.1238C10.9945 23.9975 12.0057 23.9844 13.0847 23.9148C12.5522 23.233 12.0197 22.551 11.4534 21.8351ZM26.4232 11.529C25.5493 11.5586 25.1993 11.9261 25.1983 12.8494C25.1946 16.4035 25.1963 19.9576 25.1988 23.5117C25.1989 23.6579 25.2274 23.8041 25.2427 23.9511C29.1111 23.9511 32.938 23.9511 36.8775 23.9511C35.3528 22.0589 33.8896 20.2394 32.4223 18.4234C30.9223 16.5669 29.4308 14.7032 27.9074 12.8661C27.5014 12.3765 26.992 11.9728 26.4232 11.529ZM24.5751 24.1159C20.9251 24.1159 17.2752 24.1159 13.5217 24.1159C14.4281 25.227 15.259 26.2473 16.0918 27.266C17.1359 28.5429 18.1892 29.8124 19.2246 31.0963C20.5836 32.7816 21.9057 34.4978 23.3061 36.1476C23.5101 36.3879 24.0974 36.4669 24.4394 36.3731C24.7028 36.3008 25.0344 35.842 25.0375 35.5519C25.0778 31.869 25.0676 28.1856 25.0487 24.5024C25.0481 24.3731 24.8231 24.245 24.5751 24.1159Z" fill="#5AC1AE"/>
<g clip-path="url(#clip0_54_177)">
<path d="M11.4299 21.9252C9.7829 19.9764 8.09568 18.1239 7.41127 15.6014C6.35832 11.7207 6.90046 8.14627 9.31474 4.90482C11.1975 2.37705 13.7309 0.866988 16.8021 0.255027C17.3532 0.145225 17.9271 0.110527 18.4906 0.109698C25.0562 0.100029 31.6219 0.0994086 38.1875 0.105527C40.811 0.107971 43.2242 0.847608 45.3298 2.40924C47.6314 4.11621 49.1863 6.37453 49.8688 9.18594C50.7397 12.7731 50.1246 16.098 48.0011 19.1153C46.1176 21.7914 43.5457 23.4126 40.3122 23.9338C39.3333 24.0915 38.3394 24.1561 37.2692 24.2724C37.7136 24.8413 38.1366 25.3733 38.5496 25.9131C39.6922 27.4066 40.9104 28.8504 41.9448 30.4159C42.7427 31.6234 43.134 33.065 43.2337 34.5062C43.3753 36.5515 43.3136 38.598 42.4722 40.5409C41.6653 42.4039 40.5453 44.0055 38.9579 45.2993C37.346 46.6131 35.5449 47.4614 33.5082 47.8198C32.9553 47.9171 32.3944 48.0304 31.837 48.0316C25.3155 48.0464 18.7939 48.0329 12.2724 48.0447C9.21317 48.0502 6.51256 47.1363 4.16919 45.1253C1.90082 43.1787 0.594715 40.7366 0.153276 37.8008C-0.371805 34.3089 0.454518 31.1365 2.66307 28.4243C4.53614 26.1242 6.96223 24.5952 9.97719 24.2127C10.972 24.0864 11.9811 24.0733 13.0578 24.0037C12.5265 23.3223 11.995 22.6407 11.4299 21.9252ZM26.3685 11.6245C25.4964 11.6541 25.1471 12.0214 25.1461 12.9442C25.1424 16.4964 25.1441 20.0486 25.1467 23.6009C25.1468 23.747 25.1752 23.8931 25.1905 24.0401C29.0508 24.0401 32.8696 24.0401 36.8009 24.0401C35.2794 22.1489 33.8193 20.3303 32.355 18.5152C30.8582 16.6597 29.3698 14.797 27.8496 12.9608C27.4444 12.4715 26.9361 12.068 26.3685 11.6245ZM24.5242 24.2048C20.8819 24.2048 17.2395 24.2048 13.4939 24.2048C14.3984 25.3153 15.2276 26.335 16.0587 27.3532C17.1006 28.6294 18.1517 29.8982 19.1849 31.1815C20.5411 32.8659 21.8604 34.5812 23.2579 36.2301C23.4615 36.4703 24.0475 36.5493 24.3888 36.4555C24.6517 36.3832 24.9825 35.9247 24.9857 35.6347C25.0258 31.9538 25.0157 28.2723 24.9969 24.5911C24.9962 24.4618 24.7717 24.3338 24.5242 24.2048Z" fill="#0F3E35"/>
</g>
<defs>
<clipPath id="clip0_54_177">
<rect width="50.2506" height="23.8434" fill="white" transform="translate(0.000488281 0.101555)"/>
</clipPath>
</defs>
</svg>
